<svg xmlns="http://www.w3.org/2000/svg" viewBox="0 0 24 24" width="24" height="24">
  <!-- GitHub Icon -->
  <path fill="#ababab" d="M12,0C5.4,0,0,5.4,0,12c0,5.3,3.4,9.8,8.1,11.4c0.6,0.1,0.8-0.3,0.8-0.6c0-0.3,0-1,0-1.9c-3.3,0.7-4-1.6-4-1.6c-0.5-1.3-1.3-1.6-1.3-1.6c-1.1-0.7,0.1-0.7,0.1-0.7c1.2,0.1,1.8,1.3,1.8,1.3c1,1.6,2.5,1.1,3.1,0.9c0.1-0.7,0.4-1.1,0.7-1.4c-2.5-0.3-5.1-1.2-5.1-5.6c0-1.2,0.4-2.2,1-3c-0.1-0.3-0.4-1.5,0.3-3.2c0,0,1-0.3,3.2,1.2c0.9-0.2,1.9-0.3,2.9-0.3c1,0,2,0.1,2.9,0.3c2.1-1.6,3.2-1.2,3.2-1.2c0.7,1.7,0.4,3,0.3,3.2c0.6,0.8,1,1.8,1,3c0,4.4-2.6,5.2-5.1,5.6c0.4,0.4,0.8,1.1,0.8,2.2c0,1.6,0,2.9,0,3.3c0,0.3,0.2,0.7,0.8,0.6C20.6,21.8,24,17.3,24,12C24,5.4,18.6,0,12,0z"/>
</svg>
